<svg xmlns="http://www.w3.org/2000/svg" viewBox="0 0 24 24" fill="none">
  <path d="M12 .5C5.647.5.5 5.647.5 12A11.5 11.5 0 0 0 8.36 22.09c.575.106.786-.25.786-.555 0-.274-.01-1-.016-1.963-3.181.692-3.853-1.533-3.853-1.533-.52-1.323-1.27-1.675-1.27-1.675-1.039-.71.079-.696.079-.696 1.149.08 1.753 1.18 1.753 1.18 1.02 1.747 2.674 1.242 3.326.95.104-.74.4-1.243.727-1.529-2.54-.289-5.213-1.27-5.213-5.653 0-1.249.447-2.271 1.18-3.072-.119-.29-.512-1.456.112-3.035 0 0 .963-.308 3.154 1.174a10.94 10.94 0 0 1 5.744 0c2.189-1.482 3.151-1.174 3.151-1.174.626 1.579.233 2.745.115 3.035.735.801 1.178 1.823 1.178 3.072 0 4.394-2.678 5.361-5.226 5.644.412.356.78 1.059.78 2.135 0 1.542-.014 2.786-.014 3.165 0 .307.207.666.79.553A11.502 11.502 0 0 0 23.5 12C23.5 5.647 18.353.5 12 .5Z" fill="#F1F6FF"/>
</svg>
